<?xml version="1.0" encoding="utf-8"?>
<!-- Generator: Adobe Illustrator 22.0.1, SVG Export Plug-In . SVG Version: 6.00 Build 0)  -->
<svg version="1.1" id="Layer_1" xmlns="http://www.w3.org/2000/svg" xmlns:xlink="http://www.w3.org/1999/xlink" x="0px" y="0px"
	 viewBox="0 0 261 29.8" style="enable-background:new 0 0 261 29.8;" xml:space="preserve">
<style type="text/css">
	.st0{fill:#FFFFFF;}
</style>
<g>
	<path class="st0" d="M3.7,22.8c-1.2-0.7-2.1-1.7-2.8-2.9c-0.7-1.3-1-2.7-1-4.4c0-1.7,0.3-3.2,1-4.4c0.7-1.3,1.6-2.3,2.8-3
		C5.1,7.3,6.5,7,8,7c0.8,0,1.7,0.1,2.5,0.4c0.9,0.2,1.6,0.6,2.3,1c0.7,0.5,1.1,1.1,1.1,1.7c0,0.4-0.1,0.7-0.3,0.9
		c-0.2,0.3-0.5,0.4-0.8,0.4c-0.2,0-0.4,0-0.6-0.1c-0.2-0.1-0.5-0.2-0.8-0.4c-0.6-0.4-1.1-0.6-1.5-0.8c-0.5-0.2-1-0.3-1.7-0.3
		c-1.5,0-2.7,0.5-3.5,1.5c-0.8,1-1.2,2.4-1.2,4.2s0.4,3.2,1.2,4.2c0.8,1,2,1.5,3.5,1.5c0.7,0,1.3-0.1,1.8-0.3c0.5-0.2,1-0.5,1.6-0.8
		c0.2-0.2,0.5-0.3,0.7-0.4c0.2-0.1,0.5-0.2,0.7-0.2c0.3,0,0.6,0.1,0.8,0.4c0.2,0.3,0.3,0.6,0.3,0.9c0,0.3-0.1,0.6-0.2,0.8
		c-0.2,0.3-0.4,0.5-0.8,0.8c-0.7,0.4-1.4,0.8-2.3,1c-0.9,0.2-1.8,0.4-2.7,0.4C6.3,23.8,4.9,23.5,3.7,22.8z"/>
	<path class="st0" d="M28.6,8.6c1.1,1.1,1.6,2.7,1.6,4.9v8.6c0,0.5-0.1,0.9-0.4,1.2c-0.3,0.3-0.7,0.4-1.2,0.4
		c-0.5,0-0.9-0.1-1.2-0.4c-0.3-0.3-0.4-0.7-0.4-1.2v-1.2c-0.4,0.9-1,1.6-1.9,2.1c-0.8,0.5-1.8,0.7-2.9,0.7c-1.1,0-2-0.2-2.9-0.6
		c-0.9-0.4-1.6-1-2.1-1.8c-0.5-0.8-0.7-1.6-0.7-2.6c0-1.2,0.3-2.1,0.9-2.8c0.6-0.7,1.6-1.2,3-1.4c1.4-0.3,3.3-0.4,5.8-0.4h0.8v-1
		c0-1.2-0.3-2.1-0.8-2.7c-0.5-0.6-1.3-0.8-2.5-0.8c-0.8,0-1.5,0.1-2.2,0.3c-0.7,0.2-1.4,0.5-2.3,0.9c-0.6,0.3-1,0.5-1.3,0.5
		c-0.3,0-0.6-0.1-0.8-0.4s-0.3-0.6-0.3-0.9c0-0.3,0.1-0.6,0.3-0.9c0.2-0.3,0.5-0.5,0.9-0.7c0.8-0.4,1.7-0.8,2.7-1c1-0.3,2-0.4,3-0.4
		C25.9,7,27.5,7.5,28.6,8.6z M25.7,20.1c0.8-0.8,1.2-1.9,1.2-3.2V16h-0.6c-1.7,0-3.1,0.1-4,0.2c-0.9,0.2-1.6,0.4-2,0.8
		c-0.4,0.4-0.6,0.9-0.6,1.6c0,0.8,0.3,1.4,0.9,2c0.6,0.5,1.3,0.8,2.2,0.8C24,21.3,24.9,20.9,25.7,20.1z"/>
	<path class="st0" d="M44.8,8.4c0,0.5-0.1,0.9-0.4,1.1c-0.2,0.2-0.7,0.4-1.3,0.4l-1,0.1c-1.4,0.1-2.4,0.6-3.1,1.5
		c-0.7,0.8-1,1.9-1,3.1v7.6c0,0.5-0.2,0.9-0.5,1.2c-0.3,0.3-0.7,0.4-1.2,0.4c-0.5,0-0.9-0.1-1.2-0.4c-0.3-0.3-0.5-0.7-0.5-1.2V8.6
		c0-0.5,0.2-0.9,0.5-1.2C35.5,7.2,35.9,7,36.4,7c0.4,0,0.8,0.1,1.1,0.4C37.8,7.7,38,8.1,38,8.6v1.6c0.4-1,1.1-1.7,1.9-2.2
		c0.8-0.5,1.8-0.8,2.9-0.9l0.5,0C44.3,7,44.8,7.4,44.8,8.4z"/>
	<path class="st0" d="M61.2,7.5c0.3,0.3,0.4,0.7,0.4,1.2v13.6c0,2.5-0.7,4.3-2,5.6c-1.3,1.3-3.3,1.9-5.8,1.9c-2.4,0-4.4-0.5-6-1.4
		c-0.8-0.5-1.2-1-1.2-1.7c0-0.4,0.1-0.7,0.3-0.9c0.2-0.2,0.5-0.4,0.8-0.4c0.3,0,0.7,0.2,1.4,0.5c0.8,0.4,1.5,0.7,2.2,0.9
		c0.7,0.2,1.5,0.3,2.5,0.3c3.1,0,4.6-1.5,4.6-4.6V20c-0.5,1-1.2,1.7-2.1,2.3c-1,0.5-2.1,0.8-3.3,0.8c-1.4,0-2.7-0.3-3.8-1
		c-1.1-0.7-2-1.6-2.6-2.8c-0.6-1.2-0.9-2.6-0.9-4.2s0.3-3,0.9-4.2C47.2,9.6,48,8.7,49.1,8c1.1-0.7,2.4-1,3.8-1
		c1.2,0,2.3,0.3,3.3,0.8c0.9,0.5,1.7,1.3,2.1,2.3V8.6c0-0.5,0.1-0.9,0.4-1.2C59,7.2,59.4,7,59.9,7C60.5,7,60.9,7.2,61.2,7.5z
		 M57.1,19c0.8-1,1.2-2.3,1.2-3.9c0-1.7-0.4-3-1.2-3.9c-0.8-1-1.9-1.4-3.4-1.4c-1.5,0-2.6,0.5-3.4,1.4C49.4,12,49,13.4,49,15
		c0,1.7,0.4,3,1.3,3.9c0.8,1,2,1.4,3.4,1.4C55.1,20.4,56.2,19.9,57.1,19z"/>
	<path class="st0" d="M77.9,8.6c1.1,1.1,1.6,2.7,1.6,4.9v8.6c0,0.5-0.1,0.9-0.4,1.2c-0.3,0.3-0.7,0.4-1.2,0.4
		c-0.5,0-0.9-0.1-1.2-0.4c-0.3-0.3-0.4-0.7-0.4-1.2v-1.2c-0.4,0.9-1,1.6-1.9,2.1c-0.8,0.5-1.8,0.7-2.9,0.7c-1.1,0-2-0.2-2.9-0.6
		c-0.9-0.4-1.6-1-2.1-1.8c-0.5-0.8-0.7-1.6-0.7-2.6c0-1.2,0.3-2.1,0.9-2.8c0.6-0.7,1.6-1.2,3-1.4c1.4-0.3,3.3-0.4,5.8-0.4h0.8v-1
		c0-1.2-0.3-2.1-0.8-2.7c-0.5-0.6-1.3-0.8-2.5-0.8c-0.8,0-1.5,0.1-2.2,0.3c-0.7,0.2-1.4,0.5-2.3,0.9c-0.6,0.3-1,0.5-1.3,0.5
		c-0.3,0-0.6-0.1-0.8-0.4s-0.3-0.6-0.3-0.9c0-0.3,0.1-0.6,0.3-0.9c0.2-0.3,0.5-0.5,0.9-0.7c0.8-0.4,1.7-0.8,2.7-1c1-0.3,2-0.4,3-0.4
		C75.2,7,76.8,7.5,77.9,8.6z M75,20.1c0.8-0.8,1.2-1.9,1.2-3.2V16h-0.6c-1.7,0-3.1,0.1-4,0.2c-0.9,0.2-1.6,0.4-2,0.8
		c-0.4,0.4-0.6,0.9-0.6,1.6c0,0.8,0.3,1.4,0.9,2c0.6,0.5,1.3,0.8,2.2,0.8C73.3,21.3,74.3,20.9,75,20.1z"/>
	<path class="st0" d="M99.8,6.8c0.2,0.2,0.3,0.4,0.3,0.7v15.2c0,0.3-0.1,0.5-0.3,0.7c-0.2,0.2-0.4,0.3-0.7,0.3
		c-0.3,0-0.5-0.1-0.7-0.3c-0.2-0.2-0.3-0.4-0.3-0.7v-1.3c-0.4,0.7-0.9,1.3-1.5,1.7c-0.7,0.4-1.5,0.6-2.4,0.6c-1,0-1.9-0.3-2.7-0.8
		c-0.8-0.5-1.4-1.2-1.8-2.1c-0.4-0.9-0.6-2-0.6-3.2c0-1.2,0.2-2.3,0.6-3.2c0.4-0.9,1-1.6,1.8-2.1c0.8-0.5,1.7-0.7,2.7-0.7
		c0.9,0,1.7,0.2,2.4,0.6c0.7,0.4,1.2,1,1.5,1.7V7.5c0-0.3,0.1-0.5,0.3-0.7c0.2-0.2,0.4-0.3,0.7-0.3C99.4,6.5,99.6,6.6,99.8,6.8z
		 M97.2,21c0.6-0.8,0.9-1.9,0.9-3.3c0-1.4-0.3-2.5-0.9-3.3c-0.6-0.8-1.5-1.2-2.6-1.2c-1.1,0-2,0.4-2.6,1.2c-0.6,0.8-0.9,1.8-0.9,3.2
		c0,1.4,0.3,2.5,0.9,3.3c0.6,0.8,1.5,1.2,2.6,1.2C95.7,22.1,96.6,21.7,97.2,21z"/>
	<path class="st0" d="M113.1,21.1c0.1,0.1,0.2,0.3,0.2,0.6c0,0.4-0.3,0.8-0.8,1.1c-0.6,0.3-1.2,0.6-1.8,0.8
		c-0.6,0.2-1.3,0.3-1.9,0.3c-1.8,0-3.2-0.5-4.3-1.6c-1-1.1-1.6-2.5-1.6-4.4c0-1.2,0.2-2.3,0.7-3.2c0.5-0.9,1.1-1.6,2-2.1
		c0.8-0.5,1.8-0.8,2.9-0.8c1.5,0,2.7,0.5,3.6,1.5c0.9,1,1.3,2.3,1.3,4c0,0.3-0.1,0.6-0.2,0.7c-0.1,0.1-0.3,0.2-0.6,0.2h-7.7
		c0.1,2.7,1.4,4.1,3.9,4.1c0.6,0,1.2-0.1,1.6-0.3c0.4-0.2,0.9-0.4,1.4-0.7c0.4-0.2,0.7-0.4,0.8-0.4C112.9,20.9,113,20.9,113.1,21.1z
		 M106,14.1c-0.6,0.6-1,1.5-1.1,2.7h6.8c0-1.2-0.3-2.1-0.9-2.7c-0.6-0.6-1.3-0.9-2.3-0.9C107.5,13.1,106.7,13.4,106,14.1z"/>
	<path class="st0" d="M132.9,21.6c0.2,0.2,0.3,0.5,0.3,0.9c0,0.4-0.2,0.8-0.5,1c-0.3,0.2-0.8,0.3-1.5,0.3l-0.9-0.1
		c-1.8-0.1-3.1-0.7-4-1.6c-0.9-1-1.3-2.4-1.3-4.3V10h-2c-1,0-1.5-0.4-1.5-1.3c0-0.4,0.1-0.7,0.4-0.9c0.3-0.2,0.6-0.3,1.1-0.3h2V3.9
		c0-0.5,0.1-0.9,0.4-1.2c0.3-0.3,0.7-0.4,1.2-0.4c0.5,0,0.9,0.1,1.2,0.4c0.3,0.3,0.5,0.7,0.5,1.2v3.4h3.3c0.5,0,0.8,0.1,1.1,0.3
		s0.4,0.5,0.4,0.9c0,0.4-0.1,0.7-0.4,1c-0.3,0.2-0.6,0.3-1.1,0.3h-3.3v8c0,1,0.2,1.8,0.6,2.3c0.4,0.5,1.1,0.8,2,0.8l0.9,0.1
		C132.3,21.2,132.7,21.3,132.9,21.6z"/>
	<path class="st0" d="M145.7,8.4c0,0.5-0.1,0.9-0.4,1.1c-0.2,0.2-0.7,0.4-1.3,0.4l-1,0.1c-1.4,0.1-2.4,0.6-3.1,1.5
		c-0.7,0.8-1,1.9-1,3.1v7.6c0,0.5-0.2,0.9-0.5,1.2c-0.3,0.3-0.7,0.4-1.2,0.4c-0.5,0-0.9-0.1-1.2-0.4c-0.3-0.3-0.5-0.7-0.5-1.2V8.6
		c0-0.5,0.2-0.9,0.5-1.2c0.3-0.3,0.7-0.4,1.2-0.4c0.4,0,0.8,0.1,1.1,0.4c0.3,0.3,0.4,0.7,0.4,1.1v1.6c0.4-1,1.1-1.7,1.9-2.2
		c0.8-0.5,1.8-0.8,2.9-0.9l0.5,0C145.2,7,145.7,7.4,145.7,8.4z"/>
	<path class="st0" d="M159.3,8.6c1.1,1.1,1.6,2.7,1.6,4.9v8.6c0,0.5-0.1,0.9-0.4,1.2c-0.3,0.3-0.7,0.4-1.2,0.4
		c-0.5,0-0.9-0.1-1.2-0.4c-0.3-0.3-0.4-0.7-0.4-1.2v-1.2c-0.4,0.9-1,1.6-1.9,2.1c-0.8,0.5-1.8,0.7-2.9,0.7c-1.1,0-2-0.2-2.9-0.6
		c-0.9-0.4-1.6-1-2.1-1.8c-0.5-0.8-0.7-1.6-0.7-2.6c0-1.2,0.3-2.1,0.9-2.8c0.6-0.7,1.6-1.2,3-1.4c1.4-0.3,3.3-0.4,5.8-0.4h0.8v-1
		c0-1.2-0.3-2.1-0.8-2.7c-0.5-0.6-1.3-0.8-2.5-0.8c-0.8,0-1.5,0.1-2.2,0.3c-0.7,0.2-1.4,0.5-2.3,0.9c-0.6,0.3-1,0.5-1.3,0.5
		c-0.3,0-0.6-0.1-0.8-0.4c-0.2-0.2-0.3-0.6-0.3-0.9c0-0.3,0.1-0.6,0.3-0.9c0.2-0.3,0.5-0.5,0.9-0.7c0.8-0.4,1.7-0.8,2.7-1
		c1-0.3,2-0.4,3-0.4C156.6,7,158.2,7.5,159.3,8.6z M156.4,20.1c0.8-0.8,1.2-1.9,1.2-3.2V16H157c-1.7,0-3.1,0.1-4,0.2
		c-0.9,0.2-1.6,0.4-2,0.8c-0.4,0.4-0.6,0.9-0.6,1.6c0,0.8,0.3,1.4,0.9,2c0.6,0.5,1.3,0.8,2.2,0.8C154.7,21.3,155.7,20.9,156.4,20.1z
		"/>
	<path class="st0" d="M177.9,8c1.1,0.7,1.9,1.7,2.5,2.9c0.6,1.3,0.9,2.7,0.9,4.4c0,1.7-0.3,3.1-0.9,4.4c-0.6,1.3-1.5,2.3-2.6,3
		s-2.3,1.1-3.7,1.1c-1.2,0-2.3-0.3-3.2-0.8c-0.9-0.5-1.6-1.3-2.1-2.2v1.3c0,0.5-0.1,0.9-0.4,1.2c-0.3,0.3-0.7,0.4-1.2,0.4
		c-0.5,0-0.9-0.1-1.2-0.4c-0.3-0.3-0.5-0.7-0.5-1.2V1.6c0-0.5,0.2-0.9,0.5-1.2c0.3-0.3,0.7-0.4,1.2-0.4c0.5,0,0.9,0.1,1.2,0.4
		c0.3,0.3,0.4,0.6,0.4,1.1V10c0.5-1,1.2-1.7,2.1-2.3c0.9-0.5,2-0.8,3.2-0.8C175.6,7,176.8,7.3,177.9,8z M176.7,19.6
		c0.8-1,1.2-2.4,1.2-4.3c0-1.8-0.4-3.2-1.2-4.2c-0.8-1-1.9-1.5-3.4-1.5s-2.6,0.5-3.4,1.5c-0.8,1-1.2,2.4-1.2,4.2
		c0,1.8,0.4,3.3,1.2,4.2c0.8,1,1.9,1.5,3.4,1.5C174.8,21.1,175.9,20.6,176.7,19.6z"/>
	<path class="st0" d="M196.7,8.6c1.1,1.1,1.6,2.7,1.6,4.9v8.6c0,0.5-0.1,0.9-0.4,1.2c-0.3,0.3-0.7,0.4-1.2,0.4
		c-0.5,0-0.9-0.1-1.2-0.4c-0.3-0.3-0.4-0.7-0.4-1.2v-1.2c-0.4,0.9-1,1.6-1.9,2.1c-0.8,0.5-1.8,0.7-2.9,0.7c-1.1,0-2-0.2-2.9-0.6
		c-0.9-0.4-1.6-1-2.1-1.8c-0.5-0.8-0.7-1.6-0.7-2.6c0-1.2,0.3-2.1,0.9-2.8c0.6-0.7,1.6-1.2,3-1.4c1.4-0.3,3.3-0.4,5.8-0.4h0.8v-1
		c0-1.2-0.3-2.1-0.8-2.7c-0.5-0.6-1.3-0.8-2.5-0.8c-0.8,0-1.5,0.1-2.2,0.3c-0.7,0.2-1.4,0.5-2.3,0.9c-0.6,0.3-1,0.5-1.3,0.5
		c-0.3,0-0.6-0.1-0.8-0.4s-0.3-0.6-0.3-0.9c0-0.3,0.1-0.6,0.3-0.9c0.2-0.3,0.5-0.5,0.9-0.7c0.8-0.4,1.7-0.8,2.7-1c1-0.3,2-0.4,3-0.4
		C194,7,195.6,7.5,196.7,8.6z M193.8,20.1c0.8-0.8,1.2-1.9,1.2-3.2V16h-0.6c-1.7,0-3.1,0.1-4,0.2c-0.9,0.2-1.6,0.4-2,0.8
		c-0.4,0.4-0.6,0.9-0.6,1.6c0,0.8,0.3,1.4,0.9,2c0.6,0.5,1.3,0.8,2.2,0.8C192,21.3,193,20.9,193.8,20.1z"/>
	<path class="st0" d="M203.3,23.3c-0.3-0.3-0.5-0.7-0.5-1.2V1.6c0-0.5,0.2-0.9,0.5-1.2c0.3-0.3,0.7-0.4,1.2-0.4
		c0.5,0,0.9,0.1,1.2,0.4c0.3,0.3,0.5,0.7,0.5,1.2v20.5c0,0.5-0.2,0.9-0.5,1.2c-0.3,0.3-0.7,0.4-1.2,0.4
		C204,23.7,203.6,23.6,203.3,23.3z"/>
	<path class="st0" d="M225.4,13.5v8.6c0,0.5-0.2,0.9-0.5,1.2c-0.3,0.3-0.7,0.4-1.2,0.4c-0.5,0-0.9-0.1-1.2-0.4
		c-0.3-0.3-0.4-0.7-0.4-1.2v-8.6c0-1.3-0.3-2.3-0.8-2.9c-0.5-0.6-1.4-0.9-2.5-0.9c-1.3,0-2.4,0.4-3.3,1.3c-0.8,0.8-1.2,2-1.2,3.4
		v7.8c0,0.5-0.1,0.9-0.4,1.2s-0.7,0.4-1.2,0.4c-0.5,0-0.9-0.1-1.2-0.4c-0.3-0.3-0.5-0.7-0.5-1.2V1.6c0-0.5,0.2-0.9,0.5-1.2
		c0.3-0.3,0.7-0.4,1.2-0.4c0.5,0,0.9,0.1,1.2,0.4c0.3,0.3,0.4,0.6,0.4,1.1v8.3c0.6-0.9,1.3-1.6,2.2-2.1c0.9-0.5,2-0.7,3.2-0.7
		C223.5,7,225.4,9.1,225.4,13.5z"/>
	<path class="st0" d="M232.8,22.8c-1.2-0.7-2.1-1.7-2.8-2.9c-0.7-1.3-1-2.7-1-4.4c0-1.7,0.3-3.2,1-4.5c0.7-1.3,1.6-2.3,2.8-2.9
		c1.2-0.7,2.6-1,4.2-1c1.6,0,3,0.3,4.2,1c1.2,0.7,2.1,1.7,2.8,2.9c0.7,1.3,1,2.8,1,4.5c0,1.7-0.3,3.2-1,4.4
		c-0.7,1.3-1.6,2.3-2.8,2.9c-1.2,0.7-2.6,1-4.2,1C235.4,23.8,234,23.5,232.8,22.8z M240.4,19.7c0.8-1,1.2-2.4,1.2-4.3
		c0-1.9-0.4-3.3-1.2-4.3c-0.8-1-1.9-1.5-3.4-1.5s-2.6,0.5-3.4,1.5c-0.8,1-1.2,2.4-1.2,4.3c0,1.9,0.4,3.3,1.2,4.3
		c0.8,1,1.9,1.5,3.4,1.5C238.5,21.1,239.6,20.7,240.4,19.7z"/>
	<path class="st0" d="M248.8,22.4c-0.4-0.2-0.7-0.5-0.8-0.8s-0.2-0.6-0.2-0.9c0-0.4,0.1-0.7,0.3-0.9c0.2-0.2,0.5-0.4,0.8-0.4
		c0.3,0,0.7,0.2,1.4,0.5c0.7,0.4,1.3,0.6,1.9,0.9c0.6,0.2,1.4,0.3,2.4,0.3c1.1,0,1.9-0.2,2.5-0.6c0.6-0.4,0.9-0.9,0.9-1.6
		c0-0.4-0.1-0.8-0.3-1.1c-0.2-0.3-0.6-0.5-1.2-0.7c-0.6-0.2-1.4-0.4-2.6-0.7c-1.9-0.4-3.3-1-4.2-1.7c-0.9-0.7-1.3-1.7-1.3-2.9
		c0-1,0.3-1.8,0.8-2.6c0.6-0.8,1.3-1.4,2.3-1.8c1-0.4,2.1-0.6,3.3-0.6c0.9,0,1.7,0.1,2.6,0.3c0.8,0.2,1.6,0.6,2.2,1
		c0.7,0.5,1.1,1.1,1.1,1.7c0,0.4-0.1,0.7-0.3,0.9c-0.2,0.2-0.5,0.4-0.7,0.4c-0.2,0-0.4,0-0.6-0.1c-0.2-0.1-0.5-0.2-0.8-0.4
		c-0.6-0.4-1.2-0.6-1.7-0.8c-0.5-0.2-1.2-0.3-1.9-0.3c-0.9,0-1.7,0.2-2.2,0.6c-0.6,0.4-0.8,0.9-0.8,1.6c0,0.6,0.3,1.1,0.8,1.4
		c0.5,0.3,1.5,0.7,2.9,1c1.5,0.3,2.6,0.7,3.5,1.1c0.8,0.4,1.4,0.9,1.8,1.5c0.4,0.6,0.5,1.3,0.5,2.2c0,1.4-0.6,2.6-1.8,3.5
		c-1.2,0.9-2.8,1.3-4.8,1.3C252.1,23.8,250.2,23.3,248.8,22.4z"/>
</g>
</svg>
