<?xml version="1.0" encoding="utf-8"?>
<!-- Generator: Adobe Illustrator 22.0.1, SVG Export Plug-In . SVG Version: 6.00 Build 0)  -->
<svg version="1.1" id="Layer_1" xmlns="http://www.w3.org/2000/svg" xmlns:xlink="http://www.w3.org/1999/xlink" x="0px" y="0px"
	 viewBox="0 0 318 82" style="enable-background:new 0 0 318 82;" xml:space="preserve">
<style type="text/css">
	.st0{fill:#FFFFFF;}
</style>
<g>
	<path class="st0" d="M46.6,23.2c2.3,0,3.9,1,5,2l-1.5,1.9c-1.1-0.9-2.1-1.5-3.5-1.5c-3.2,0-5.4,2.7-5.4,6.7s2.2,6.6,5.4,6.6
		c1.6,0,3-0.8,4.1-1.7l1.3,2c-1.5,1.4-3.6,2.3-5.6,2.3c-4.6,0-8.1-3.3-8.1-9C38.3,26.5,42.2,23.2,46.6,23.2z"/>
	<path class="st0" d="M65.2,29.9c0-2.2-0.7-4.3-3.6-4.3c-2,0-3.8,0.9-5.1,1.9l-1.1-2c1.6-1.1,4-2.3,6.8-2.3c4.2,0,6,2.8,6,7.2v10.6
		h-2.4l-0.2-2h-0.1c-1.7,1.4-3.6,2.5-5.7,2.5c-2.9,0-5.1-1.8-5.1-4.9C54.5,32.6,57.9,30.7,65.2,29.9z M60.5,38.9
		c1.7,0,3.1-0.8,4.7-2.3v-4.8c-5.8,0.7-7.7,2.1-7.7,4.3C57.5,38.1,58.8,38.9,60.5,38.9z"/>
	<path class="st0" d="M73.7,23.6h2.4l0.2,3.2h0.1c1.1-2.2,2.9-3.6,4.9-3.6c0.7,0,1.3,0.1,1.9,0.3l-0.6,2.6c-0.6-0.2-1-0.3-1.7-0.3
		c-1.5,0-3.2,1.1-4.4,4v11.1h-2.8V23.6z"/>
	<path class="st0" d="M86.8,40.3v-0.2c-0.9-0.6-1.5-1.5-1.5-2.8c0-1.5,1-2.6,1.9-3.2V34c-1.1-0.9-2.3-2.6-2.3-4.6
		c0-3.7,3-6.2,6.5-6.2c1,0,1.8,0.2,2.4,0.4h6v2.3h-3.4c0.8,0.8,1.5,2.1,1.5,3.6c0,3.7-2.8,6-6.3,6c-0.9,0-1.8-0.2-2.6-0.6
		c-0.6,0.6-1.1,1.1-1.1,2c0,1.1,0.7,1.9,3.1,1.9h3.3c4,0,6,1.2,6,4.1c0,3.2-3.4,6-8.8,6c-4.2,0-7.2-1.7-7.2-4.6
		C84.3,42.7,85.3,41.4,86.8,40.3z M92,46.8c3.3,0,5.4-1.7,5.4-3.5c0-1.6-1.2-2.1-3.5-2.1h-3c-0.7,0-1.5-0.1-2.3-0.3
		c-1.2,0.9-1.8,2-1.8,2.9C86.9,45.7,88.8,46.8,92,46.8z M95.1,29.3c0-2.5-1.6-4-3.7-4c-2,0-3.7,1.5-3.7,4s1.7,4.1,3.7,4.1
		S95.1,31.9,95.1,29.3z"/>
	<path class="st0" d="M112.8,29.9c0-2.2-0.7-4.3-3.6-4.3c-2,0-3.8,0.9-5.1,1.9l-1.1-2c1.6-1.1,4-2.3,6.8-2.3c4.2,0,6,2.8,6,7.2v10.6
		h-2.4l-0.2-2H113c-1.7,1.4-3.6,2.5-5.7,2.5c-2.9,0-5.1-1.8-5.1-4.9C102.2,32.6,105.5,30.7,112.8,29.9z M108.1,38.9
		c1.7,0,3.1-0.8,4.7-2.3v-4.8c-5.8,0.7-7.7,2.1-7.7,4.3C105,38.1,106.3,38.9,108.1,38.9z"/>
	<path class="st0" d="M125.6,32.9c0.9,0,1.5,0.3,2.2,0.9l-0.1-1.3v-3h1.3v11.4H128l-0.1-0.9h-0.1c-0.6,0.6-1.5,1.1-2.4,1.1
		c-2,0-3.3-1.5-3.3-4.1C122.3,34.5,123.8,32.9,125.6,32.9z M125.8,40c0.7,0,1.4-0.3,2-1.1v-4.1c-0.7-0.6-1.2-0.8-1.9-0.8
		c-1.2,0-2.3,1.2-2.3,3C123.6,38.8,124.4,40,125.8,40z"/>
	<path class="st0" d="M134.6,32.9c2,0,3.1,1.5,3.1,3.7c0,0.2,0,0.5-0.1,0.7h-5.3c0.1,1.7,1.1,2.8,2.6,2.8c0.7,0,1.4-0.2,2-0.6
		l0.5,0.9c-0.7,0.4-1.5,0.8-2.5,0.8c-2.1,0-3.7-1.5-3.7-4.1C131.1,34.5,132.9,32.9,134.6,32.9z M136.6,36.4c0-1.5-0.7-2.4-2-2.4
		c-1.1,0-2.1,0.9-2.3,2.4H136.6z"/>
	<path class="st0" d="M142.5,26h-2.6v-2.2l2.7-0.2l0.3-4.9h2.4v4.9h4.6V26h-4.6v9.6c0,2.1,0.7,3.3,2.7,3.3c0.6,0,1.4-0.2,2-0.5
		l0.6,2.2c-1,0.3-2.1,0.7-3.2,0.7c-3.7,0-5-2.4-5-5.8L142.5,26L142.5,26z"/>
	<path class="st0" d="M154.1,23.6h2.4l0.2,3.2h0.1c1.1-2.2,2.9-3.6,4.9-3.6c0.7,0,1.3,0.1,1.9,0.3l-0.6,2.6c-0.6-0.2-1-0.3-1.7-0.3
		c-1.5,0-3.2,1.1-4.4,4v11.1H154L154.1,23.6L154.1,23.6z"/>
	<path class="st0" d="M175.3,29.9c0-2.2-0.7-4.3-3.6-4.3c-2,0-3.8,0.9-5.1,1.9l-1.1-2c1.6-1.1,4-2.3,6.8-2.3c4.2,0,6,2.8,6,7.2v10.6
		h-2.4l-0.2-2h-0.1c-1.7,1.4-3.6,2.5-5.7,2.5c-2.9,0-5.1-1.8-5.1-4.9C164.7,32.6,167.9,30.7,175.3,29.9z M170.6,38.9
		c1.7,0,3.1-0.8,4.7-2.3v-4.8c-5.8,0.7-7.7,2.1-7.7,4.3C167.6,38.1,168.9,38.9,170.6,38.9z"/>
	<path class="st0" d="M183.8,15.5h2.9v6.9l-0.1,3.2c1.5-1.4,3.5-2.4,5.4-2.4c4.5,0,6.8,3.4,6.8,8.8c0,5.9-3.5,9.4-7.5,9.4
		c-1.6,0-3.4-0.8-5-2.1h-0.1l-0.2,1.7h-2.4L183.8,15.5L183.8,15.5z M190.9,38.8c2.8,0,5-2.6,5-6.8c0-3.8-1.3-6.3-4.6-6.3
		c-1.5,0-3,0.8-4.6,2.4v9.1C188.2,38.4,189.8,38.8,190.9,38.8z"/>
	<path class="st0" d="M212.8,29.9c0-2.2-0.7-4.3-3.6-4.3c-2,0-3.8,0.9-5.1,1.9l-1.1-2c1.6-1.1,4-2.3,6.8-2.3c4.2,0,6,2.8,6,7.2v10.6
		h-2.4l-0.2-2H213c-1.7,1.4-3.6,2.5-5.7,2.5c-2.9,0-5.1-1.8-5.1-4.9C202.1,32.6,205.4,30.7,212.8,29.9z M208.1,38.9
		c1.7,0,3.1-0.8,4.7-2.3v-4.8c-5.8,0.7-7.7,2.1-7.7,4.3C205,38.1,206.4,38.9,208.1,38.9z"/>
	<path class="st0" d="M221.3,15.5h2.9v22c0,0.9,0.4,1.3,0.8,1.3c0.2,0,0.3,0,0.7-0.1L226,41c-0.4,0.2-0.9,0.3-1.7,0.3
		c-2.2,0-3.1-1.4-3.1-3.9V15.5z"/>
	<path class="st0" d="M230.3,15.5h2.9v6.9l-0.1,3.6c1.6-1.5,3.4-2.8,5.8-2.8c3.7,0,5.3,2.4,5.3,6.7v11h-2.9V30.3
		c0-3.3-1-4.6-3.3-4.6c-1.8,0-3,0.9-4.7,2.7v12.5h-2.9L230.3,15.5L230.3,15.5z"/>
	<path class="st0" d="M256.4,23.2c4.2,0,8,3.3,8,9.1c0,5.7-3.7,9-8,9c-4.2,0-8-3.3-8-9C248.4,26.5,252.2,23.2,256.4,23.2z
		 M256.4,38.8c3,0,5-2.7,5-6.6c0-4-2-6.7-5-6.7c-2.9,0-5,2.7-5,6.7S253.5,38.8,256.4,38.8z"/>
	<path class="st0" d="M268.5,37c1.5,1.2,3,2,5.1,2c2.3,0,3.4-1.2,3.4-2.7c0-1.8-2-2.6-4-3.3c-2.4-0.9-5.1-2-5.1-5
		c0-2.8,2.2-4.9,5.9-4.9c2.2,0,4.1,0.9,5.4,2l-1.4,1.9c-1.1-0.9-2.4-1.5-4-1.5c-2.2,0-3.2,1.1-3.2,2.5c0,1.6,1.9,2.3,3.8,3
		c2.5,0.9,5.3,2,5.3,5.2c0,2.8-2.3,5.1-6.3,5.1c-2.4,0-4.8-1.1-6.4-2.4L268.5,37z"/>
	<path class="st0" d="M42,54.1c2.1,0,3.3,1.5,3.3,3.9c0,0.3,0,0.6-0.1,0.8h-5.7c0.1,1.8,1.2,2.9,2.8,2.9c0.8,0,1.5-0.2,2.1-0.7
		l0.5,0.9c-0.7,0.5-1.6,0.9-2.8,0.9c-2.3,0-4-1.6-4-4.4C38.2,55.8,40.2,54.1,42,54.1z M44.1,57.9c0-1.7-0.7-2.7-2-2.7
		c-1.1,0-2.3,1-2.4,2.7H44.1z"/>
	<path class="st0" d="M47.5,54.3h1.1l0.1,1.2h0.1c0.7-0.8,1.6-1.4,2.6-1.4c1.3,0,2,0.6,2.3,1.6c0.9-1,1.7-1.6,2.8-1.6
		c1.7,0,2.5,1.1,2.5,3.3v5.3h-1.4v-5.1c0-1.5-0.5-2.3-1.5-2.3c-0.7,0-1.3,0.4-2.1,1.3v6.1h-1.4v-5.1c0-1.5-0.5-2.3-1.5-2.3
		c-0.7,0-1.3,0.4-2.1,1.3v6.1h-1.4V54.3z"/>
	<path class="st0" d="M63.2,63.4v2.8h-1.4v-12h1.1l0.1,1h0.1c0.7-0.7,1.7-1.1,2.7-1.1c2.2,0,3.3,1.7,3.3,4.3c0,2.8-1.7,4.6-3.7,4.6
		c-0.8,0-1.5-0.3-2.4-1L63.2,63.4z M65.2,61.7c1.4,0,2.4-1.2,2.4-3.3c0-1.9-0.7-3.1-2.2-3.1c-0.7,0-1.4,0.4-2.3,1.1v4.4
		C63.9,61.5,64.6,61.7,65.2,61.7z"/>
	<path class="st0" d="M71.3,54.3h1.1l0.1,1.5h0.1c0.6-1.1,1.5-1.7,2.4-1.7c0.3,0,0.7,0.1,0.9,0.2l-0.2,1.2c-0.2-0.1-0.5-0.2-0.8-0.2
		c-0.7,0-1.5,0.5-2.1,2v5.4h-1.4V54.3z"/>
	<path class="st0" d="M80.2,54.1c2.1,0,3.3,1.5,3.3,3.9c0,0.3,0,0.6-0.1,0.8h-5.7c0.1,1.8,1.2,2.9,2.8,2.9c0.8,0,1.5-0.2,2.1-0.7
		l0.5,0.9c-0.7,0.5-1.6,0.9-2.8,0.9c-2.3,0-4-1.6-4-4.4C76.4,55.8,78.4,54.1,80.2,54.1z M82.4,57.9c0-1.7-0.7-2.7-2-2.7
		c-1.1,0-2.3,1-2.4,2.7H82.4z"/>
	<path class="st0" d="M86.1,62.4L86.1,62.4c-0.4-0.3-0.7-0.8-0.7-1.5c0-0.7,0.5-1.2,0.9-1.5v-0.1c-0.6-0.5-1.1-1.2-1.1-2.3
		c0-1.8,1.5-3,3.2-3c0.5,0,0.9,0.1,1.2,0.2h2.9v1.1h-1.8c0.4,0.4,0.7,1.1,0.7,1.7c0,1.8-1.4,2.9-3.1,2.9c-0.4,0-0.9-0.1-1.2-0.3
		c-0.3,0.2-0.6,0.6-0.6,1c0,0.6,0.3,0.9,1.5,0.9h1.6c2,0,2.9,0.6,2.9,2c0,1.5-1.6,2.9-4.2,2.9c-2,0-3.5-0.8-3.5-2.3
		C84.9,63.6,85.4,62.9,86.1,62.4z M88.5,65.6c1.6,0,2.7-0.8,2.7-1.7c0-0.8-0.6-1.1-1.7-1.1H88c-0.3,0-0.7,0-1.1-0.2
		c-0.6,0.4-0.9,0.9-0.9,1.4C86.1,65,87.1,65.6,88.5,65.6z M90.1,57.1c0-1.2-0.8-2-1.8-2s-1.8,0.7-1.8,2s0.8,2,1.8,2
		S90.1,58.3,90.1,57.1z"/>
	<path class="st0" d="M97.2,54.1c2,0,3.9,1.6,3.9,4.4s-1.8,4.4-3.9,4.4c-2,0-3.9-1.6-3.9-4.4C93.3,55.7,95.2,54.1,97.2,54.1z
		 M97.2,61.7c1.5,0,2.4-1.3,2.4-3.2c0-2-1-3.3-2.4-3.3s-2.4,1.3-2.4,3.3C94.8,60.4,95.8,61.7,97.2,61.7z"/>
	<path class="st0" d="M106.8,54.3h1.1l0.1,1.2h0.1c0.8-0.8,1.6-1.4,2.8-1.4c1.8,0,2.5,1.1,2.5,3.3v5.3h-1.4v-5.1
		c0-1.5-0.5-2.3-1.6-2.3c-0.9,0-1.5,0.5-2.3,1.3v6.1h-1.4V54.3z"/>
	<path class="st0" d="M121,57.4c0-1.1-0.3-2.1-1.7-2.1c-1,0-1.9,0.5-2.5,0.9l-0.6-1c0.8-0.5,2-1.1,3.3-1.1c2,0,2.9,1.4,2.9,3.4v5.1
		h-1.1l-0.1-1l0,0c-0.8,0.7-1.7,1.2-2.8,1.2c-1.4,0-2.4-0.9-2.4-2.4C115.8,58.7,117.4,57.8,121,57.4z M118.7,61.8
		c0.8,0,1.5-0.4,2.3-1.1v-2.4c-2.8,0.3-3.7,1.1-3.7,2.1C117.2,61.4,117.8,61.8,118.7,61.8z"/>
	<path class="st0" d="M133.3,57.4c0-1.1-0.3-2.1-1.7-2.1c-1,0-1.9,0.5-2.5,0.9l-0.6-1c0.8-0.5,2-1.1,3.3-1.1c2,0,2.9,1.4,2.9,3.4
		v5.1h-1.1l-0.1-1l0,0c-0.8,0.7-1.7,1.2-2.8,1.2c-1.4,0-2.4-0.9-2.4-2.4C128.1,58.7,129.7,57.8,133.3,57.4z M131,61.8
		c0.8,0,1.5-0.4,2.3-1.1v-2.4c-2.8,0.3-3.7,1.1-3.7,2.1C129.5,61.4,130.2,61.8,131,61.8z M131.7,52.8h-1.1l1.5-2.4h1.5L131.7,52.8z"
		/>
	<path class="st0" d="M137.4,54.3h1.1l0.1,1.5h0.1c0.6-1.1,1.5-1.7,2.4-1.7c0.3,0,0.7,0.1,0.9,0.2l-0.2,1.2
		c-0.2-0.1-0.5-0.2-0.8-0.2c-0.7,0-1.5,0.5-2.1,2v5.4h-1.4V54.3z"/>
	<path class="st0" d="M146.4,54.1c2.1,0,3.3,1.5,3.3,3.9c0,0.3,0,0.6-0.1,0.8h-5.7c0.1,1.8,1.2,2.9,2.8,2.9c0.8,0,1.5-0.2,2.1-0.7
		l0.5,0.9c-0.7,0.5-1.6,0.9-2.8,0.9c-2.3,0-4-1.6-4-4.4C142.5,55.8,144.4,54.1,146.4,54.1z M148.4,57.9c0-1.7-0.7-2.7-2-2.7
		c-1.1,0-2.3,1-2.4,2.7H148.4z"/>
	<path class="st0" d="M156.3,57.4c0-1.1-0.3-2.1-1.7-2.1c-1,0-1.9,0.5-2.5,0.9l-0.6-1c0.8-0.5,2-1.1,3.3-1.1c2,0,2.9,1.4,2.9,3.4
		v5.1h-1.1l-0.1-1l0,0c-0.8,0.7-1.7,1.2-2.8,1.2c-1.4,0-2.4-0.9-2.4-2.4C151.1,58.7,152.7,57.8,156.3,57.4z M153.9,61.8
		c0.8,0,1.5-0.4,2.3-1.1v-2.4c-2.8,0.3-3.7,1.1-3.7,2.1C152.5,61.4,153.1,61.8,153.9,61.8z"/>
	<path class="st0" d="M166.8,54.1c1,0,1.6,0.3,2.4,1l-0.1-1.5v-3.3h1.5v12.3h-1.1l-0.1-1h-0.1c-0.7,0.7-1.5,1.2-2.5,1.2
		c-2.1,0-3.5-1.6-3.5-4.4C163.2,55.8,164.9,54.1,166.8,54.1z M167,61.7c0.8,0,1.5-0.4,2.1-1.1v-4.4c-0.7-0.7-1.4-0.9-2-0.9
		c-1.4,0-2.4,1.3-2.4,3.2C164.7,60.5,165.5,61.7,167,61.7z"/>
	<path class="st0" d="M176.5,54.1c2.1,0,3.3,1.5,3.3,3.9c0,0.3,0,0.6-0.1,0.8h-5.7c0.1,1.8,1.2,2.9,2.8,2.9c0.8,0,1.5-0.2,2.1-0.7
		l0.5,0.9c-0.7,0.5-1.6,0.9-2.8,0.9c-2.3,0-4-1.6-4-4.4C172.7,55.8,174.6,54.1,176.5,54.1z M178.6,57.9c0-1.7-0.7-2.7-2-2.7
		c-1.1,0-2.3,1-2.4,2.7H178.6z"/>
	<path class="st0" d="M188.8,54.1c1.1,0,1.9,0.5,2.4,1l-0.7,0.9c-0.5-0.4-1.1-0.7-1.7-0.7c-1.5,0-2.6,1.3-2.6,3.3
		c0,2,1.1,3.2,2.6,3.2c0.8,0,1.5-0.4,2-0.8l0.7,0.9c-0.7,0.7-1.7,1.1-2.8,1.1c-2.2,0-3.9-1.6-3.9-4.4
		C184.8,55.7,186.7,54.1,188.8,54.1z"/>
	<path class="st0" d="M196.2,54.1c2,0,3.9,1.6,3.9,4.4s-1.8,4.4-3.9,4.4c-2,0-3.9-1.6-3.9-4.4C192.3,55.7,194.1,54.1,196.2,54.1z
		 M196.2,61.7c1.5,0,2.4-1.3,2.4-3.2c0-2-1-3.3-2.4-3.3c-1.5,0-2.4,1.3-2.4,3.3C193.8,60.4,194.7,61.7,196.2,61.7z"/>
	<path class="st0" d="M202.3,54.3h1.1l0.1,1.2h0.1c0.7-0.8,1.6-1.4,2.6-1.4c1.3,0,2,0.6,2.3,1.6c0.9-1,1.7-1.6,2.8-1.6
		c1.7,0,2.5,1.1,2.5,3.3v5.3h-1.4v-5.1c0-1.5-0.5-2.3-1.5-2.3c-0.7,0-1.3,0.4-2.1,1.3v6.1h-1.4v-5.1c0-1.5-0.5-2.3-1.5-2.3
		c-0.7,0-1.3,0.4-2.1,1.3v6.1h-1.4L202.3,54.3L202.3,54.3z"/>
	<path class="st0" d="M216.5,54.3h1.5v5.1c0,1.5,0.5,2.3,1.5,2.3c0.9,0,1.5-0.4,2.3-1.4v-5.9h1.4v8.4H222l-0.1-1.3h-0.1
		c-0.8,0.9-1.6,1.5-2.8,1.5c-1.8,0-2.6-1.1-2.6-3.3V54.3z"/>
	<path class="st0" d="M226,54.3h1.1l0.1,1.2h0.1c0.8-0.8,1.6-1.4,2.8-1.4c1.8,0,2.5,1.1,2.5,3.3v5.3h-1.4v-5.1
		c0-1.5-0.5-2.3-1.6-2.3c-0.9,0-1.5,0.5-2.3,1.3v6.1H226L226,54.3L226,54.3z"/>
	<path class="st0" d="M235.2,51.7c0-0.6,0.4-0.9,1-0.9s1,0.3,1,0.9c0,0.6-0.4,0.9-1,0.9S235.2,52.2,235.2,51.7z M235.4,54.3h1.4v8.4
		h-1.4V54.3z"/>
	<path class="st0" d="M243,54.1c1.1,0,1.9,0.5,2.4,1l-0.7,0.9c-0.5-0.4-1.1-0.7-1.7-0.7c-1.5,0-2.6,1.3-2.6,3.3c0,2,1.1,3.2,2.6,3.2
		c0.8,0,1.5-0.4,2-0.8l0.7,0.9c-0.7,0.7-1.7,1.1-2.8,1.1c-2.2,0-3.9-1.6-3.9-4.4C239,55.7,240.8,54.1,243,54.1z"/>
	<path class="st0" d="M252.1,57.4c0-1.1-0.3-2.1-1.7-2.1c-1,0-1.9,0.5-2.5,0.9l-0.6-1c0.8-0.5,2-1.1,3.3-1.1c2,0,2.9,1.4,2.9,3.4
		v5.1h-1.1l-0.1-1l0,0c-0.8,0.7-1.7,1.2-2.8,1.2c-1.4,0-2.4-0.9-2.4-2.4C246.9,58.7,248.5,57.8,252.1,57.4z M249.8,61.8
		c0.8,0,1.5-0.4,2.3-1.1v-2.4c-2.8,0.3-3.7,1.1-3.7,2.1C248.3,61.4,248.9,61.8,249.8,61.8z"/>
	<path class="st0" d="M259.6,63.6c0.6,0.2,1.1,0.5,1.1,1.2c0,1-1.2,1.5-2.5,1.6l-0.2-0.7c0.9-0.1,1.5-0.3,1.5-0.8s-0.4-0.7-1.1-0.8
		l0.6-1.1c-2-0.2-3.4-1.8-3.4-4.3c0-2.8,1.9-4.4,4.1-4.4c1.1,0,1.9,0.5,2.4,1l-0.7,0.9c-0.5-0.4-1.1-0.7-1.7-0.7
		c-1.5,0-2.6,1.3-2.6,3.3c0,2,1.1,3.2,2.6,3.2c0.8,0,1.5-0.4,2-0.8l0.7,0.9c-0.7,0.6-1.5,1-2.3,1.1L259.6,63.6z"/>
	<path class="st0" d="M268.6,57.4c0-1.1-0.3-2.1-1.7-2.1c-1,0-1.9,0.5-2.5,0.9l-0.6-1c0.8-0.5,2-1.1,3.3-1.1c2,0,2.9,1.4,2.9,3.4
		v5.1h-1.2l-0.1-1l0,0c-0.8,0.7-1.7,1.2-2.8,1.2c-1.4,0-2.4-0.9-2.4-2.4C263.5,58.7,265,57.8,268.6,57.4z M266.1,50.9
		c0.9,0,1.4,0.9,2,0.9c0.3,0,0.6-0.3,0.7-0.9h0.8c-0.1,1.1-0.6,1.8-1.4,1.8c-0.9,0-1.4-0.9-2-0.9c-0.3,0-0.6,0.3-0.7,0.9h-0.8
		C264.8,51.7,265.2,50.9,266.1,50.9z M266.3,61.8c0.8,0,1.5-0.4,2.3-1.1v-2.4c-2.8,0.3-3.7,1.1-3.7,2.1
		C264.8,61.4,265.5,61.8,266.3,61.8z"/>
	<path class="st0" d="M275.9,54.1c2,0,3.9,1.6,3.9,4.4s-1.8,4.4-3.9,4.4c-2,0-3.9-1.6-3.9-4.4C272.1,55.7,273.9,54.1,275.9,54.1z
		 M275.9,61.7c1.5,0,2.4-1.3,2.4-3.2c0-2-1-3.3-2.4-3.3c-1.5,0-2.4,1.3-2.4,3.3C273.5,60.4,274.5,61.7,275.9,61.7z"/>
</g>
</svg>
