<?xml version="1.0" encoding="utf-8"?>
<!-- Generator: Adobe Illustrator 22.0.1, SVG Export Plug-In . SVG Version: 6.00 Build 0)  -->
<svg version="1.1" id="Layer_1" xmlns="http://www.w3.org/2000/svg" xmlns:xlink="http://www.w3.org/1999/xlink" x="0px" y="0px"
	 viewBox="0 0 48 48" style="enable-background:new 0 0 48 48;" xml:space="preserve">
<style type="text/css">
	.st0{fill:#FFFFFF;}
</style>
<path class="st0" d="M46.7,46.7c-1.8,1.8-4.6,1.8-6.4,0l-8-8C29,40.8,25.2,42,21,42C9.4,42,0,32.6,0,21S9.4,0,21,0s21,9.4,21,21
	c0,4.2-1.3,8-3.3,11.3l8,8C48.4,42.1,48.4,44.9,46.7,46.7z M21,6C12.7,6,6,12.7,6,21s6.7,15,15,15s15-6.7,15-15
	C36.1,12.7,29.3,6,21,6z"/>
</svg>
